<svg width="122" height="70" viewBox="0 0 122 70" fill="none" xmlns="http://www.w3.org/2000/svg">
<g clip-path="url(#clip0)">
<path d="M54.83 53H53.198V37.819H43.406V49.294C43.406 49.7587 43.4627 50.161 43.576 50.501C43.7007 50.8297 43.865 51.1017 44.069 51.317C44.2843 51.5323 44.5337 51.691 44.817 51.793C45.1003 51.895 45.4063 51.946 45.735 51.946C46.143 51.946 46.4943 51.8893 46.789 51.776C47.0837 51.6513 47.3387 51.521 47.554 51.385C47.7693 51.2377 47.945 51.1073 48.081 50.994C48.217 50.8693 48.3247 50.807 48.404 50.807C48.4947 50.807 48.5853 50.8637 48.676 50.977L49.118 51.691C48.6873 52.167 48.1377 52.5523 47.469 52.847C46.8117 53.1303 46.126 53.272 45.412 53.272C44.2673 53.272 43.372 52.9547 42.726 52.32C42.0913 51.6853 41.774 50.705 41.774 49.379V37.819H39.343C39.2183 37.819 39.1163 37.785 39.037 37.717C38.9577 37.649 38.918 37.5527 38.918 37.428V36.799L41.808 36.595L42.216 30.543C42.2387 30.441 42.284 30.3503 42.352 30.271C42.42 30.1917 42.5163 30.152 42.641 30.152H43.406V36.612H54.83V53ZM55.578 30.05C55.578 30.254 55.5327 30.4467 55.442 30.628C55.3627 30.798 55.2493 30.951 55.102 31.087C54.966 31.223 54.8073 31.3307 54.626 31.41C54.4447 31.4893 54.252 31.529 54.048 31.529C53.844 31.529 53.6513 31.4893 53.47 31.41C53.2887 31.3307 53.13 31.223 52.994 31.087C52.858 30.951 52.7503 30.798 52.671 30.628C52.5917 30.4467 52.552 30.254 52.552 30.05C52.552 29.846 52.5917 29.6533 52.671 29.472C52.7503 29.2793 52.858 29.115 52.994 28.979C53.13 28.843 53.2887 28.7353 53.47 28.656C53.6513 28.5767 53.844 28.537 54.048 28.537C54.252 28.537 54.4447 28.5767 54.626 28.656C54.8073 28.7353 54.966 28.843 55.102 28.979C55.2493 29.115 55.3627 29.2793 55.442 29.472C55.5327 29.6533 55.578 29.846 55.578 30.05ZM71.9501 38.346C71.8934 38.4027 71.8367 38.4537 71.7801 38.499C71.7347 38.533 71.6667 38.55 71.5761 38.55C71.4627 38.55 71.3097 38.4763 71.1171 38.329C70.9244 38.1703 70.6637 38.0003 70.3351 37.819C70.0064 37.6377 69.5927 37.4733 69.0941 37.326C68.6067 37.1673 68.0117 37.088 67.3091 37.088C66.3344 37.088 65.4674 37.2637 64.7081 37.615C63.9601 37.955 63.3254 38.448 62.8041 39.094C62.2827 39.74 61.8861 40.522 61.6141 41.44C61.3534 42.358 61.2231 43.3893 61.2231 44.534C61.2231 45.724 61.3591 46.778 61.6311 47.696C61.9144 48.614 62.3111 49.3903 62.8211 50.025C63.3311 50.6483 63.9487 51.1243 64.6741 51.453C65.3994 51.7817 66.2041 51.946 67.0881 51.946C67.9041 51.946 68.5841 51.8497 69.1281 51.657C69.6834 51.4643 70.1367 51.2547 70.4881 51.028C70.8507 50.8013 71.1341 50.5917 71.3381 50.399C71.5421 50.2063 71.7121 50.11 71.8481 50.11C71.9841 50.11 72.0974 50.1667 72.1881 50.28L72.6131 50.824C72.3524 51.164 72.0237 51.4813 71.6271 51.776C71.2304 52.0707 70.7827 52.3257 70.2841 52.541C69.7854 52.7563 69.2414 52.9207 68.6521 53.034C68.0741 53.1587 67.4677 53.221 66.8331 53.221C65.7564 53.221 64.7704 53.0283 63.8751 52.643C62.9911 52.2463 62.2261 51.6797 61.5801 50.943C60.9454 50.195 60.4467 49.2827 60.0841 48.206C59.7327 47.1293 59.5571 45.9053 59.5571 44.534C59.5571 43.242 59.7271 42.0633 60.0671 40.998C60.4071 39.9327 60.9057 39.0147 61.5631 38.244C62.2204 37.4733 63.0194 36.8783 63.9601 36.459C64.9121 36.0283 66.0001 35.813 67.2241 35.813C68.3234 35.813 69.2981 35.9887 70.1481 36.34C70.9981 36.6913 71.7404 37.1673 72.3751 37.768L71.9501 38.346ZM78.2462 28.265V43.344H79.0282C79.1868 43.344 79.3342 43.3213 79.4702 43.276C79.6175 43.2307 79.7762 43.123 79.9462 42.953L86.7292 36.51C86.8425 36.374 86.9672 36.272 87.1032 36.204C87.2392 36.1247 87.4092 36.085 87.6132 36.085H89.0412L81.5782 43.174C81.3742 43.412 81.1532 43.599 80.9152 43.735C81.0965 43.8257 81.2495 43.9333 81.3742 44.058C81.5102 44.1713 81.6405 44.3073 81.7652 44.466L89.6022 53H88.1912C88.0325 53 87.8852 52.9773 87.7492 52.932C87.6245 52.8753 87.5055 52.7677 87.3922 52.609L80.2862 44.993C80.1955 44.891 80.1048 44.806 80.0142 44.738C79.9348 44.67 79.8498 44.619 79.7592 44.585C79.6685 44.5397 79.5608 44.5113 79.4362 44.5C79.3228 44.4773 79.1812 44.466 79.0112 44.466H78.2462V53H76.6142V28.265H78.2462ZM103.554 42.834C103.554 41.9273 103.424 41.117 103.163 40.403C102.914 39.6777 102.557 39.0657 102.092 38.567C101.628 38.0683 101.072 37.6887 100.426 37.428C99.7917 37.156 99.0891 37.02 98.3184 37.02C97.4457 37.02 96.6637 37.156 95.9724 37.428C95.2811 37.7 94.6804 38.091 94.1704 38.601C93.6717 39.111 93.2694 39.723 92.9634 40.437C92.6574 41.151 92.4534 41.95 92.3514 42.834H103.554ZM92.2664 43.871V44.194C92.2664 45.4633 92.4137 46.5797 92.7084 47.543C93.0031 48.5063 93.4224 49.3167 93.9664 49.974C94.5104 50.62 95.1677 51.1073 95.9384 51.436C96.7091 51.7647 97.5704 51.929 98.5224 51.929C99.3724 51.929 100.109 51.8383 100.732 51.657C101.356 51.4643 101.877 51.2547 102.296 51.028C102.727 50.79 103.067 50.5803 103.316 50.399C103.566 50.2063 103.747 50.11 103.86 50.11C104.008 50.11 104.121 50.1667 104.2 50.28L104.642 50.824C104.37 51.164 104.008 51.4813 103.554 51.776C103.112 52.0707 102.614 52.3257 102.058 52.541C101.514 52.745 100.925 52.9093 100.29 53.034C99.6671 53.1587 99.0381 53.221 98.4034 53.221C97.2474 53.221 96.1934 53.0227 95.2414 52.626C94.2894 52.218 93.4734 51.6287 92.7934 50.858C92.1134 50.0873 91.5864 49.1467 91.2124 48.036C90.8497 46.914 90.6684 45.6333 90.6684 44.194C90.6684 42.9813 90.8384 41.865 91.1784 40.845C91.5297 39.8137 92.0284 38.9297 92.6744 38.193C93.3317 37.445 94.1307 36.8613 95.0714 36.442C96.0234 36.0227 97.1001 35.813 98.3014 35.813C99.2534 35.813 100.137 35.9773 100.953 36.306C101.769 36.6347 102.478 37.1163 103.078 37.751C103.679 38.3743 104.149 39.145 104.489 40.063C104.841 40.981 105.016 42.035 105.016 43.225C105.016 43.4743 104.982 43.6443 104.914 43.735C104.846 43.8257 104.733 43.871 104.574 43.871H92.2664ZM113.976 53.272C112.832 53.272 111.936 52.9547 111.29 52.32C110.656 51.6853 110.338 50.705 110.338 49.379V37.819H107.907C107.783 37.819 107.681 37.785 107.601 37.717C107.522 37.649 107.482 37.5527 107.482 37.428V36.799L110.372 36.595L110.78 30.543C110.803 30.441 110.848 30.3503 110.916 30.271C110.984 30.1917 111.081 30.152 111.205 30.152H111.97V36.612H117.308V37.819H111.97V49.294C111.97 49.7587 112.027 50.161 112.14 50.501C112.265 50.8297 112.429 51.1017 112.633 51.317C112.849 51.5323 113.098 51.691 113.381 51.793C113.665 51.895 113.971 51.946 114.299 51.946C114.707 51.946 115.059 51.8893 115.353 51.776C115.648 51.6513 115.903 51.521 116.118 51.385C116.334 51.2377 116.509 51.1073 116.645 50.994C116.781 50.8693 116.889 50.807 116.968 50.807C117.059 50.807 117.15 50.8637 117.24 50.977L117.682 51.691C117.252 52.167 116.702 52.5523 116.033 52.847C115.376 53.1303 114.69 53.272 113.976 53.272Z" fill="black"/>
<path d="M14.835 18.105V30.005H30.865V38.755H14.835V50.9H35.765V60H2.935V9.005H35.765V18.105H14.835Z" fill="#7ABA42" fill-opacity="0.6"/>
</g>
<defs>
<clipPath id="clip0">
<rect width="122" height="70" fill="white"/>
</clipPath>
</defs>
</svg>
